<svg xmlns="http://www.w3.org/2000/svg" viewBox="0 0 1323 1083" fill="none">
  <path d="M 1081.6875 0.542969 C 1080.207031 0.542969 1078.726562 0.597656 1077.25 0.710938 C 1075.769531 0.820312 1074.296875 0.984375 1072.832031 1.203125 C 1071.363281 1.421875 1069.910156 1.695312 1068.464844 2.023438 C 1067.015625 2.351562 1065.585938 2.730469 1064.167969 3.164062 C 1062.75 3.597656 1061.347656 4.082031 1059.96875 4.617188 C 1058.585938 5.15625 1057.226562 5.742188 1055.886719 6.378906 C 1054.546875 7.019531 1053.234375 7.703125 1051.949219 8.4375 C 1050.660156 9.175781 1049.402344 9.957031 1048.171875 10.785156 C 1046.941406 11.613281 1045.746094 12.484375 1044.582031 13.402344 C 1043.414062 14.320312 1042.285156 15.277344 1041.191406 16.277344 C 1040.097656 17.277344 1039.042969 18.320312 1038.023438 19.398438 C 1037.007812 20.476562 1036.03125 21.589844 1035.097656 22.742188 C 1034.164062 23.894531 1033.273438 25.078125 1032.425781 26.296875 C 1031.578125 27.511719 1030.777344 28.757812 1030.023438 30.035156 C 1029.269531 31.3125 1028.5625 32.613281 1027.90625 33.945312 C 1027.246094 35.273438 1026.640625 36.625 1026.082031 37.996094 C 1025.523438 39.371094 1025.019531 40.765625 1024.5625 42.175781 C 1024.109375 43.585938 1023.707031 45.011719 1023.359375 46.453125 C 1023.007812 47.894531 1022.714844 49.347656 1022.472656 50.8125 C 1022.230469 52.273438 1022.042969 53.742188 1021.910156 55.222656 C 1021.777344 56.699219 1021.699219 58.175781 1021.675781 59.660156 C 1021.652344 61.144531 1021.6875 62.625 1021.773438 64.105469 C 1021.859375 65.585938 1022 67.058594 1022.195312 68.53125 C 1022.390625 70 1022.640625 71.460938 1022.945312 72.910156 C 1023.25 74.363281 1023.609375 75.800781 1024.019531 77.226562 C 1024.429688 78.652344 1024.890625 80.058594 1025.40625 81.449219 C 1025.921875 82.839844 1026.488281 84.210938 1027.101562 85.558594 C 1027.71875 86.90625 1028.382812 88.230469 1029.097656 89.53125 C 1029.8125 90.828125 1030.574219 92.101562 1031.382812 93.34375 C 1032.191406 94.585938 1033.042969 95.796875 1033.941406 96.976562 C 1034.839844 98.15625 1035.78125 99.300781 1036.765625 100.414062 C 1037.746094 101.523438 1038.769531 102.59375 1039.832031 103.628906 L 1117.449219 181.265625 L 928.566406 181.265625 C 855.910156 181.265625 786.664062 214.339844 741.09375 271.917969 L 708.964844 311.675781 C 707.707031 313.203125 706.523438 314.789062 705.421875 316.433594 C 704.316406 318.078125 703.296875 319.773438 702.363281 321.519531 C 701.425781 323.265625 700.578125 325.050781 699.820312 326.882812 C 699.0625 328.710938 698.394531 330.574219 697.820312 332.46875 C 697.246094 334.363281 696.765625 336.28125 696.378906 338.226562 C 695.996094 340.167969 695.707031 342.125 695.515625 344.097656 C 695.324219 346.066406 695.230469 348.042969 695.234375 350.023438 C 695.242188 352.003906 695.34375 353.980469 695.542969 355.953125 C 695.742188 357.921875 696.039062 359.878906 696.429688 361.820312 C 696.824219 363.761719 697.3125 365.675781 697.894531 367.570312 C 698.476562 369.464844 699.152344 371.324219 699.917969 373.148438 C 700.6875 374.976562 701.539062 376.757812 702.484375 378.5 C 703.425781 380.242188 704.453125 381.933594 705.566406 383.570312 C 706.675781 385.210938 707.863281 386.792969 709.128906 388.316406 C 710.398438 389.835938 711.734375 391.292969 713.148438 392.683594 C 714.558594 394.074219 716.035156 395.390625 717.574219 396.632812 C 719.117188 397.875 720.714844 399.042969 722.371094 400.125 C 724.027344 401.210938 725.734375 402.214844 727.488281 403.128906 C 729.242188 404.046875 731.039062 404.875 732.878906 405.613281 C 734.714844 406.351562 736.582031 407 738.484375 407.550781 C 740.386719 408.105469 742.308594 408.5625 744.257812 408.929688 C 746.203125 409.292969 748.164062 409.558594 750.136719 409.726562 C 752.109375 409.898438 754.085938 409.96875 756.066406 409.941406 C 758.042969 409.914062 760.019531 409.792969 761.984375 409.570312 C 763.953125 409.347656 765.90625 409.03125 767.84375 408.617188 C 769.777344 408.203125 771.6875 407.691406 773.574219 407.089844 C 775.460938 406.484375 777.3125 405.789062 779.128906 405.003906 C 780.945312 404.214844 782.71875 403.339844 784.449219 402.378906 C 786.179688 401.414062 787.859375 400.367188 789.488281 399.242188 C 791.113281 398.113281 792.679688 396.90625 794.1875 395.621094 C 795.695312 394.335938 797.136719 392.980469 798.511719 391.554688 C 799.886719 390.128906 801.183594 388.636719 802.410156 387.082031 L 834.886719 346.859375 C 835.007812 346.703125 835.125 346.546875 835.238281 346.386719 C 858.101562 317.503906 891.972656 301.355469 928.566406 301.355469 L 1117.449219 301.355469 L 1039.832031 378.992188 C 1039.113281 379.679688 1038.414062 380.386719 1037.730469 381.113281 C 1037.050781 381.835938 1036.382812 382.578125 1035.738281 383.335938 C 1035.09375 384.089844 1034.464844 384.863281 1033.859375 385.652344 C 1033.25 386.441406 1032.664062 387.246094 1032.097656 388.0625 C 1031.527344 388.878906 1030.980469 389.710938 1030.457031 390.554688 C 1029.929688 391.402344 1029.425781 392.257812 1028.941406 393.128906 C 1028.457031 394 1027.996094 394.878906 1027.554688 395.773438 C 1027.117188 396.667969 1026.699219 397.570312 1026.304688 398.484375 C 1025.910156 399.398438 1025.535156 400.320312 1025.1875 401.253906 C 1024.839844 402.1875 1024.511719 403.125 1024.210938 404.074219 C 1023.910156 405.023438 1023.628906 405.976562 1023.375 406.941406 C 1023.121094 407.902344 1022.890625 408.871094 1022.683594 409.84375 C 1022.476562 410.820312 1022.296875 411.796875 1022.136719 412.78125 C 1021.980469 413.761719 1021.847656 414.75 1021.738281 415.738281 C 1021.628906 416.726562 1021.542969 417.71875 1021.484375 418.714844 C 1021.425781 419.707031 1021.390625 420.703125 1021.378906 421.699219 C 1021.371094 422.691406 1021.382812 423.6875 1021.425781 424.683594 C 1021.464844 425.675781 1021.527344 426.671875 1021.617188 427.660156 C 1021.703125 428.652344 1021.816406 429.640625 1021.957031 430.628906 C 1022.09375 431.613281 1022.257812 432.597656 1022.441406 433.574219 C 1022.628906 434.550781 1022.839844 435.523438 1023.074219 436.492188 C 1023.3125 437.457031 1023.570312 438.417969 1023.851562 439.375 C 1024.136719 440.328125 1024.441406 441.277344 1024.773438 442.214844 C 1025.101562 443.152344 1025.453125 444.085938 1025.832031 445.007812 C 1026.207031 445.925781 1026.605469 446.839844 1027.027344 447.742188 C 1027.449219 448.644531 1027.894531 449.535156 1028.359375 450.414062 C 1028.824219 451.292969 1029.3125 452.160156 1029.820312 453.015625 C 1030.328125 453.871094 1030.859375 454.714844 1031.410156 455.542969 C 1031.960938 456.371094 1032.53125 457.1875 1033.125 457.988281 C 1033.714844 458.789062 1034.324219 459.574219 1034.957031 460.34375 C 1035.585938 461.113281 1036.234375 461.867188 1036.902344 462.605469 C 1037.570312 463.34375 1038.257812 464.066406 1038.960938 464.769531 C 1039.664062 465.472656 1040.386719 466.160156 1041.125 466.828125 C 1041.863281 467.496094 1042.617188 468.144531 1043.386719 468.777344 C 1044.15625 469.40625 1044.941406 470.019531 1045.742188 470.609375 C 1046.542969 471.199219 1047.355469 471.773438 1048.1875 472.324219 C 1049.015625 472.875 1049.855469 473.402344 1050.710938 473.914062 C 1051.566406 474.421875 1052.433594 474.910156 1053.3125 475.375 C 1054.195312 475.839844 1055.085938 476.285156 1055.984375 476.707031 C 1056.886719 477.128906 1057.800781 477.527344 1058.71875 477.902344 C 1059.640625 478.28125 1060.570312 478.632812 1061.511719 478.964844 C 1062.449219 479.292969 1063.394531 479.597656 1064.351562 479.882812 C 1065.304688 480.164062 1066.265625 480.425781 1067.234375 480.660156 C 1068.199219 480.894531 1069.171875 481.105469 1070.148438 481.292969 C 1071.128906 481.480469 1072.109375 481.640625 1073.09375 481.78125 C 1074.078125 481.917969 1075.070312 482.03125 1076.058594 482.121094 C 1077.050781 482.207031 1078.042969 482.273438 1079.039062 482.3125 C 1080.03125 482.351562 1081.027344 482.367188 1082.023438 482.355469 C 1083.019531 482.34375 1084.011719 482.3125 1085.003906 482.25 C 1086 482.191406 1086.992188 482.105469 1087.980469 482 C 1088.96875 481.890625 1089.957031 481.757812 1090.9375 481.597656 C 1091.921875 481.441406 1092.898438 481.257812 1093.871094 481.050781 C 1094.847656 480.84375 1095.8125 480.613281 1096.777344 480.359375 C 1097.738281 480.105469 1098.691406 479.824219 1099.640625 479.523438 C 1100.589844 479.222656 1101.53125 478.894531 1102.460938 478.546875 C 1103.394531 478.199219 1104.316406 477.824219 1105.230469 477.429688 C 1106.144531 477.035156 1107.046875 476.617188 1107.941406 476.179688 C 1108.832031 475.738281 1109.714844 475.277344 1110.582031 474.792969 C 1111.453125 474.308594 1112.3125 473.804688 1113.15625 473.277344 C 1114 472.75 1114.832031 472.203125 1115.648438 471.636719 C 1116.464844 471.070312 1117.269531 470.480469 1118.058594 469.875 C 1118.847656 469.265625 1119.617188 468.640625 1120.375 467.992188 C 1121.132812 467.347656 1121.875 466.683594 1122.597656 466 C 1123.324219 465.316406 1124.027344 464.617188 1124.71875 463.898438 L 1304.808594 283.761719 C 1306.195312 282.371094 1307.515625 280.917969 1308.761719 279.398438 C 1310.007812 277.878906 1311.179688 276.300781 1312.269531 274.664062 C 1313.363281 273.03125 1314.371094 271.34375 1315.296875 269.609375 C 1316.222656 267.875 1317.0625 266.101562 1317.816406 264.285156 C 1318.566406 262.46875 1319.226562 260.617188 1319.796875 258.738281 C 1320.367188 256.855469 1320.847656 254.949219 1321.230469 253.023438 C 1321.613281 251.09375 1321.902344 249.152344 1322.09375 247.195312 C 1322.285156 245.238281 1322.382812 243.277344 1322.382812 241.308594 C 1322.382812 239.34375 1322.285156 237.382812 1322.09375 235.425781 C 1321.902344 233.46875 1321.613281 231.527344 1321.230469 229.597656 C 1320.847656 227.667969 1320.367188 225.765625 1319.796875 223.882812 C 1319.226562 222 1318.566406 220.152344 1317.816406 218.335938 C 1317.0625 216.519531 1316.222656 214.742188 1315.296875 213.007812 C 1314.371094 211.273438 1313.363281 209.589844 1312.269531 207.953125 C 1311.179688 206.320312 1310.007812 204.742188 1308.761719 203.222656 C 1307.515625 201.703125 1306.195312 200.246094 1304.808594 198.855469 L 1124.71875 18.722656 C 1121.921875 15.84375 1118.867188 13.277344 1115.554688 11.011719 C 1112.242188 8.75 1108.738281 6.835938 1105.042969 5.273438 C 1101.347656 3.714844 1097.535156 2.535156 1093.601562 1.738281 C 1089.671875 0.941406 1085.699219 0.542969 1081.6875 0.542969 Z M 61.773438 181.265625 C 59.789062 181.238281 57.808594 181.308594 55.832031 181.476562 C 53.855469 181.644531 51.890625 181.910156 49.941406 182.273438 C 47.992188 182.636719 46.0625 183.09375 44.15625 183.648438 C 42.253906 184.203125 40.378906 184.847656 38.539062 185.589844 C 36.699219 186.328125 34.898438 187.160156 33.140625 188.078125 C 31.378906 188.996094 29.671875 190 28.011719 191.085938 C 26.351562 192.175781 24.75 193.339844 23.207031 194.589844 C 21.664062 195.835938 20.1875 197.15625 18.773438 198.546875 C 17.359375 199.941406 16.019531 201.402344 14.75 202.925781 C 13.484375 204.453125 12.292969 206.039062 11.183594 207.683594 C 10.070312 209.328125 9.046875 211.023438 8.101562 212.769531 C 7.160156 214.515625 6.304688 216.300781 5.539062 218.132812 C 4.773438 219.964844 4.101562 221.828125 3.519531 223.726562 C 2.9375 225.625 2.453125 227.542969 2.0625 229.492188 C 1.671875 231.4375 1.378906 233.394531 1.183594 235.371094 C 0.984375 237.34375 0.886719 239.324219 0.886719 241.308594 C 0.886719 243.292969 0.984375 245.273438 1.183594 247.25 C 1.378906 249.222656 1.671875 251.183594 2.0625 253.128906 C 2.453125 255.074219 2.9375 256.996094 3.519531 258.894531 C 4.101562 260.792969 4.773438 262.65625 5.539062 264.488281 C 6.304688 266.316406 7.160156 268.105469 8.101562 269.851562 C 9.046875 271.597656 10.070312 273.292969 11.183594 274.9375 C 12.292969 276.582031 13.484375 278.167969 14.75 279.691406 C 16.019531 281.21875 17.359375 282.679688 18.773438 284.070312 C 20.1875 285.464844 21.664062 286.785156 23.207031 288.03125 C 24.75 289.277344 26.351562 290.445312 28.011719 291.535156 C 29.671875 292.621094 31.378906 293.625 33.140625 294.542969 C 34.898438 295.460938 36.699219 296.289062 38.539062 297.03125 C 40.378906 297.769531 42.253906 298.417969 44.15625 298.972656 C 46.0625 299.527344 47.992188 299.984375 49.941406 300.347656 C 51.890625 300.710938 53.855469 300.976562 55.832031 301.144531 C 57.808594 301.3125 59.789062 301.382812 61.773438 301.355469 L 275.394531 301.355469 C 311.894531 301.355469 346.332031 317.828125 369.191406 346.386719 L 741.210938 811.621094 C 786.738281 868.609375 855.808594 901.804688 928.683594 901.804688 L 1117.449219 901.804688 L 1039.832031 979.441406 C 1039.113281 980.128906 1038.414062 980.835938 1037.730469 981.5625 C 1037.050781 982.285156 1036.382812 983.027344 1035.738281 983.785156 C 1035.09375 984.539062 1034.464844 985.3125 1033.859375 986.101562 C 1033.25 986.890625 1032.664062 987.695312 1032.097656 988.511719 C 1031.527344 989.328125 1030.980469 990.160156 1030.457031 991.007812 C 1029.929688 991.851562 1029.425781 992.707031 1028.941406 993.578125 C 1028.457031 994.449219 1027.996094 995.332031 1027.554688 996.222656 C 1027.117188 997.117188 1026.699219 998.019531 1026.304688 998.933594 C 1025.910156 999.847656 1025.535156 1000.769531 1025.1875 1001.703125 C 1024.839844 1002.636719 1024.511719 1003.574219 1024.210938 1004.523438 C 1023.910156 1005.472656 1023.628906 1006.429688 1023.375 1007.390625 C 1023.121094 1008.351562 1022.890625 1009.320312 1022.683594 1010.292969 C 1022.476562 1011.269531 1022.296875 1012.246094 1022.136719 1013.230469 C 1021.980469 1014.210938 1021.847656 1015.199219 1021.738281 1016.1875 C 1021.628906 1017.175781 1021.542969 1018.167969 1021.484375 1019.164062 C 1021.425781 1020.15625 1021.390625 1021.152344 1021.378906 1022.148438 C 1021.371094 1023.140625 1021.382812 1024.136719 1021.425781 1025.132812 C 1021.464844 1026.125 1021.527344 1027.121094 1021.617188 1028.109375 C 1021.703125 1029.101562 1021.816406 1030.089844 1021.957031 1031.078125 C 1022.09375 1032.0625 1022.257812 1033.046875 1022.441406 1034.023438 C 1022.628906 1035 1022.839844 1035.972656 1023.074219 1036.941406 C 1023.3125 1037.910156 1023.570312 1038.867188 1023.851562 1039.824219 C 1024.136719 1040.777344 1024.441406 1041.726562 1024.773438 1042.664062 C 1025.101562 1043.601562 1025.453125 1044.535156 1025.832031 1045.457031 C 1026.207031 1046.375 1026.605469 1047.289062 1027.027344 1048.191406 C 1027.449219 1049.09375 1027.894531 1049.984375 1028.359375 1050.863281 C 1028.824219 1051.742188 1029.3125 1052.609375 1029.820312 1053.464844 C 1030.328125 1054.320312 1030.859375 1055.164062 1031.410156 1055.992188 C 1031.960938 1056.820312 1032.53125 1057.636719 1033.125 1058.4375 C 1033.714844 1059.238281 1034.324219 1060.023438 1034.957031 1060.792969 C 1035.585938 1061.5625 1036.234375 1062.320312 1036.902344 1063.054688 C 1037.570312 1063.792969 1038.257812 1064.515625 1038.960938 1065.21875 C 1039.664062 1065.921875 1040.386719 1066.609375 1041.125 1067.277344 C 1041.863281 1067.945312 1042.617188 1068.59375 1043.386719 1069.226562 C 1044.15625 1069.855469 1044.941406 1070.46875 1045.742188 1071.058594 C 1046.542969 1071.648438 1047.355469 1072.222656 1048.1875 1072.773438 C 1049.015625 1073.324219 1049.855469 1073.851562 1050.710938 1074.363281 C 1051.566406 1074.871094 1052.433594 1075.359375 1053.3125 1075.824219 C 1054.195312 1076.289062 1055.085938 1076.734375 1055.984375 1077.15625 C 1056.886719 1077.578125 1057.800781 1077.976562 1058.71875 1078.351562 C 1059.640625 1078.730469 1060.570312 1079.082031 1061.511719 1079.414062 C 1062.449219 1079.742188 1063.394531 1080.046875 1064.351562 1080.332031 C 1065.304688 1080.613281 1066.265625 1080.875 1067.234375 1081.109375 C 1068.199219 1081.34375 1069.171875 1081.554688 1070.148438 1081.742188 C 1071.128906 1081.929688 1072.109375 1082.089844 1073.09375 1082.230469 C 1074.078125 1082.367188 1075.070312 1082.480469 1076.058594 1082.570312 C 1077.050781 1082.65625 1078.042969 1082.722656 1079.039062 1082.761719 C 1080.03125 1082.800781 1081.027344 1082.816406 1082.023438 1082.804688 C 1083.019531 1082.792969 1084.011719 1082.761719 1085.003906 1082.699219 C 1086 1082.640625 1086.992188 1082.554688 1087.980469 1082.449219 C 1088.96875 1082.339844 1089.957031 1082.207031 1090.9375 1082.046875 C 1091.921875 1081.890625 1092.898438 1081.707031 1093.871094 1081.5 C 1094.847656 1081.292969 1095.8125 1081.0625 1096.777344 1080.808594 C 1097.738281 1080.554688 1098.691406 1080.273438 1099.640625 1079.972656 C 1100.589844 1079.671875 1101.53125 1079.34375 1102.460938 1078.996094 C 1103.394531 1078.648438 1104.316406 1078.273438 1105.230469 1077.878906 C 1106.144531 1077.484375 1107.046875 1077.066406 1107.941406 1076.628906 C 1108.832031 1076.1875 1109.714844 1075.726562 1110.582031 1075.242188 C 1111.453125 1074.757812 1112.3125 1074.253906 1113.15625 1073.726562 C 1114 1073.203125 1114.832031 1072.652344 1115.648438 1072.085938 C 1116.464844 1071.519531 1117.269531 1070.929688 1118.058594 1070.324219 C 1118.847656 1069.714844 1119.617188 1069.089844 1120.375 1068.441406 C 1121.132812 1067.796875 1121.875 1067.132812 1122.597656 1066.449219 C 1123.324219 1065.765625 1124.027344 1065.066406 1124.71875 1064.347656 L 1304.808594 884.210938 C 1306.195312 882.820312 1307.515625 881.367188 1308.761719 879.847656 C 1310.007812 878.328125 1311.179688 876.75 1312.269531 875.113281 C 1313.363281 873.480469 1314.371094 871.792969 1315.296875 870.058594 C 1316.222656 868.324219 1317.0625 866.550781 1317.816406 864.734375 C 1318.566406 862.917969 1319.226562 861.066406 1319.796875 859.1875 C 1320.367188 857.304688 1320.847656 855.398438 1321.230469 853.472656 C 1321.613281 851.542969 1321.902344 849.601562 1322.09375 847.644531 C 1322.285156 845.6875 1322.382812 843.726562 1322.382812 841.757812 C 1322.382812 839.792969 1322.285156 837.832031 1322.09375 835.875 C 1321.902344 833.917969 1321.613281 831.976562 1321.230469 830.046875 C 1320.847656 828.117188 1320.367188 826.214844 1319.796875 824.332031 C 1319.226562 822.449219 1318.566406 820.601562 1317.816406 818.785156 C 1317.0625 816.96875 1316.222656 815.191406 1315.296875 813.457031 C 1314.371094 811.722656 1313.363281 810.039062 1312.269531 808.40625 C 1311.179688 806.769531 1310.007812 805.191406 1308.761719 803.671875 C 1307.515625 802.152344 1306.195312 800.695312 1304.808594 799.304688 L 1124.71875 619.171875 C 1121.921875 616.292969 1118.867188 613.726562 1115.554688 611.460938 C 1112.242188 609.199219 1108.738281 607.285156 1105.042969 605.722656 C 1101.347656 604.164062 1097.535156 602.984375 1093.601562 602.1875 C 1089.671875 601.390625 1085.699219 600.992188 1081.6875 600.992188 C 1080.207031 600.992188 1078.726562 601.046875 1077.25 601.160156 C 1075.769531 601.269531 1074.296875 601.433594 1072.832031 601.652344 C 1071.363281 601.871094 1069.910156 602.144531 1068.464844 602.472656 C 1067.015625 602.800781 1065.585938 603.179688 1064.167969 603.613281 C 1062.75 604.046875 1061.347656 604.53125 1059.96875 605.066406 C 1058.585938 605.605469 1057.226562 606.191406 1055.886719 606.828125 C 1054.546875 607.46875 1053.234375 608.152344 1051.949219 608.886719 C 1050.660156 609.625 1049.402344 610.40625 1048.171875 611.234375 C 1046.941406 612.0625 1045.746094 612.933594 1044.582031 613.851562 C 1043.414062 614.769531 1042.285156 615.726562 1041.191406 616.726562 C 1040.097656 617.726562 1039.042969 618.769531 1038.023438 619.847656 C 1037.007812 620.925781 1036.03125 622.039062 1035.097656 623.191406 C 1034.164062 624.34375 1033.273438 625.527344 1032.425781 626.746094 C 1031.578125 627.960938 1030.777344 629.207031 1030.023438 630.484375 C 1029.269531 631.761719 1028.5625 633.066406 1027.90625 634.394531 C 1027.246094 635.722656 1026.640625 637.074219 1026.082031 638.449219 C 1025.523438 639.820312 1025.019531 641.214844 1024.5625 642.625 C 1024.109375 644.035156 1023.707031 645.464844 1023.359375 646.902344 C 1023.007812 648.34375 1022.714844 649.796875 1022.472656 651.261719 C 1022.230469 652.722656 1022.042969 654.195312 1021.910156 655.671875 C 1021.777344 657.148438 1021.699219 658.628906 1021.675781 660.109375 C 1021.652344 661.59375 1021.6875 663.074219 1021.773438 664.554688 C 1021.859375 666.035156 1022 667.507812 1022.195312 668.980469 C 1022.390625 670.449219 1022.640625 671.910156 1022.945312 673.359375 C 1023.25 674.8125 1023.609375 676.25 1024.019531 677.675781 C 1024.429688 679.101562 1024.890625 680.507812 1025.40625 681.898438 C 1025.921875 683.289062 1026.488281 684.660156 1027.101562 686.007812 C 1027.71875 687.355469 1028.382812 688.679688 1029.097656 689.980469 C 1029.8125 691.277344 1030.574219 692.550781 1031.382812 693.792969 C 1032.191406 695.035156 1033.042969 696.246094 1033.941406 697.425781 C 1034.839844 698.605469 1035.78125 699.75 1036.765625 700.863281 C 1037.746094 701.972656 1038.769531 703.042969 1039.832031 704.078125 L 1117.449219 781.714844 L 928.683594 781.714844 C 892.183594 781.714844 857.789062 765.195312 835.003906 736.679688 L 462.867188 271.449219 C 417.292969 214.507812 348.265625 181.265625 275.394531 181.265625 Z M 446.6875 673 C 444.515625 673.082031 442.351562 673.28125 440.199219 673.597656 C 438.042969 673.914062 435.914062 674.347656 433.808594 674.894531 C 431.703125 675.445312 429.632812 676.105469 427.601562 676.878906 C 425.566406 677.652344 423.578125 678.53125 421.640625 679.523438 C 419.703125 680.511719 417.824219 681.605469 416.003906 682.796875 C 414.183594 683.992188 412.4375 685.28125 410.757812 686.664062 C 409.078125 688.050781 407.476562 689.519531 405.957031 691.078125 C 404.4375 692.636719 403.007812 694.273438 401.667969 695.984375 L 369.191406 736.210938 C 369.070312 736.367188 368.953125 736.523438 368.839844 736.679688 C 345.976562 765.566406 312.105469 781.714844 275.511719 781.714844 L 61.773438 781.714844 C 59.789062 781.6875 57.808594 781.757812 55.832031 781.925781 C 53.855469 782.09375 51.890625 782.359375 49.941406 782.722656 C 47.992188 783.085938 46.0625 783.542969 44.15625 784.097656 C 42.253906 784.652344 40.378906 785.296875 38.539062 786.039062 C 36.699219 786.777344 34.898438 787.609375 33.140625 788.527344 C 31.378906 789.445312 29.671875 790.449219 28.011719 791.535156 C 26.351562 792.625 24.75 793.789062 23.207031 795.039062 C 21.664062 796.285156 20.1875 797.605469 18.773438 798.996094 C 17.359375 800.390625 16.019531 801.851562 14.75 803.375 C 13.484375 804.902344 12.292969 806.488281 11.183594 808.132812 C 10.070312 809.777344 9.046875 811.472656 8.101562 813.21875 C 7.160156 814.964844 6.304688 816.75 5.539062 818.582031 C 4.773438 820.414062 4.101562 822.277344 3.519531 824.175781 C 2.9375 826.070312 2.453125 827.992188 2.0625 829.941406 C 1.671875 831.886719 1.378906 833.84375 1.183594 835.820312 C 0.984375 837.796875 0.886719 839.773438 0.886719 841.757812 C 0.886719 843.742188 0.984375 845.722656 1.183594 847.699219 C 1.378906 849.671875 1.671875 851.632812 2.0625 853.578125 C 2.453125 855.523438 2.9375 857.445312 3.519531 859.34375 C 4.101562 861.242188 4.773438 863.105469 5.539062 864.9375 C 6.304688 866.765625 7.160156 868.554688 8.101562 870.300781 C 9.046875 872.046875 10.070312 873.742188 11.183594 875.386719 C 12.292969 877.03125 13.484375 878.617188 14.75 880.140625 C 16.019531 881.667969 17.359375 883.128906 18.773438 884.519531 C 20.1875 885.914062 21.664062 887.234375 23.207031 888.480469 C 24.75 889.726562 26.351562 890.894531 28.011719 891.984375 C 29.671875 893.070312 31.378906 894.074219 33.140625 894.992188 C 34.898438 895.910156 36.699219 896.738281 38.539062 897.480469 C 40.378906 898.21875 42.253906 898.867188 44.15625 899.421875 C 46.0625 899.976562 47.992188 900.433594 49.941406 900.796875 C 51.890625 901.160156 53.855469 901.425781 55.832031 901.59375 C 57.808594 901.761719 59.789062 901.832031 61.773438 901.804688 L 275.511719 901.804688 C 348.167969 901.804688 417.414062 868.730469 462.984375 811.148438 L 495.109375 771.394531 C 496.953125 769.175781 498.628906 766.835938 500.136719 764.375 C 501.640625 761.917969 502.964844 759.363281 504.101562 756.710938 C 505.242188 754.0625 506.183594 751.34375 506.929688 748.554688 C 507.675781 745.769531 508.21875 742.945312 508.558594 740.078125 C 508.898438 737.214844 509.03125 734.339844 508.957031 731.457031 C 508.882812 728.574219 508.601562 725.710938 508.117188 722.867188 C 507.628906 720.023438 506.941406 717.230469 506.050781 714.484375 C 505.160156 711.742188 504.078125 709.074219 502.804688 706.488281 C 501.53125 703.898438 500.078125 701.414062 498.449219 699.039062 C 496.816406 696.660156 495.023438 694.410156 493.066406 692.289062 C 491.113281 690.167969 489.015625 688.199219 486.773438 686.382812 C 484.535156 684.5625 482.179688 682.917969 479.699219 681.4375 C 477.222656 679.960938 474.65625 678.667969 471.992188 677.558594 C 469.328125 676.453125 466.601562 675.542969 463.804688 674.828125 C 461.011719 674.113281 458.179688 673.601562 455.3125 673.296875 C 452.445312 672.992188 449.570312 672.890625 446.6875 673 Z M 446.6875 673 " fill="white" fill-rule="nonzero"/>
</svg>
